<svg width="180" height="180" viewBox="0 0 180 180" fill="none" xmlns="http://www.w3.org/2000/svg">
  <style>
    @media (prefers-color-scheme: light) {
      .bg { fill: #0a0a0a; }
      .fg { fill: #fafafa; }
    }
    @media (prefers-color-scheme: dark) {
      .bg { fill: #fafafa; }
      .fg { fill: #0a0a0a; }
    }
  </style>
  <rect class="bg" width="180" height="180" rx="32"/>
  <g transform="translate(36, 32)">
    <!-- Open book icon -->
    <path class="fg" d="M54 8C42 8 30 12 24 18V100C30 94 42 90 54 90C66 90 78 94 84 100V18C78 12 66 8 54 8Z" fill-opacity="0.9"/>
    <path class="fg" d="M84 18V100C90 94 102 90 114 90C126 90 138 94 144 100V18C138 12 126 8 114 8C102 8 90 12 84 18Z" fill-opacity="0.9"/>
    <!-- Spine line -->
    <line x1="84" y1="18" x2="84" y2="100" stroke-width="3" class="fg" opacity="0.3"/>
    <!-- Page lines left -->
    <line x1="38" y1="36" x2="70" y2="30" class="fg" stroke-width="3" opacity="0.2"/>
    <line x1="38" y1="50" x2="70" y2="44" class="fg" stroke-width="3" opacity="0.2"/>
    <line x1="38" y1="64" x2="70" y2="58" class="fg" stroke-width="3" opacity="0.2"/>
    <!-- Page lines right -->
    <line x1="98" y1="30" x2="130" y2="36" class="fg" stroke-width="3" opacity="0.2"/>
    <line x1="98" y1="44" x2="130" y2="50" class="fg" stroke-width="3" opacity="0.2"/>
    <line x1="98" y1="58" x2="130" y2="64" class="fg" stroke-width="3" opacity="0.2"/>
  </g>
</svg>