<svg xmlns="http://www.w3.org/2000/svg" width="256" height="48" fill="none" viewBox="0 0 256 48">
  <g transform="translate(4, 8)">
    <!-- Book icon -->
    <path d="M16 2C12 2 8 4 6 6V30C8 28 12 26 16 26C20 26 22 28 24 30V6C22 4 20 2 16 2Z" fill="#0a0a0a"/>
    <path d="M24 6V30C26 28 28 26 32 26C36 26 40 28 42 30V6C40 4 36 2 32 2C28 2 26 4 24 6Z" fill="#0a0a0a"/>
  </g>
  <text x="56" y="32" font-family="system-ui, -apple-system, sans-serif" font-size="28" font-weight="700" fill="#0a0a0a">OpenDocs</text>
</svg>